<?xml version="1.0" encoding="UTF-8" standalone="no"?>
<svg
   xmlns:dc="http://purl.org/dc/elements/1.1/"
   xmlns:cc="http://creativecommons.org/ns#"
   xmlns:rdf="http://www.w3.org/1999/02/22-rdf-syntax-ns#"
   xmlns:svg="http://www.w3.org/2000/svg"
   xmlns="http://www.w3.org/2000/svg"
   xmlns:sodipodi="http://sodipodi.sourceforge.net/DTD/sodipodi-0.dtd"
   xmlns:inkscape="http://www.inkscape.org/namespaces/inkscape"
   version="1.0"
   width="698.000000pt"
   height="224.000000pt"
   viewBox="0 0 698.000000 224.000000"
   preserveAspectRatio="xMidYMid meet"
   id="svg96"
   sodipodi:docname="omif.svg"
   inkscape:version="0.92.5 (2060ec1f9f, 2020-04-08)">
  <metadata
     id="metadata102">
    <rdf:RDF>
      <cc:Work
         rdf:about="">
        <dc:format>image/svg+xml</dc:format>
        <dc:type
           rdf:resource="http://purl.org/dc/dcmitype/StillImage" />
        <dc:title></dc:title>
      </cc:Work>
    </rdf:RDF>
  </metadata>
  <defs
     id="defs100" />
  <sodipodi:namedview
     pagecolor="#ffffff"
     bordercolor="#666666"
     borderopacity="1"
     objecttolerance="10"
     gridtolerance="10"
     guidetolerance="10"
     inkscape:pageopacity="0"
     inkscape:pageshadow="2"
     inkscape:window-width="1366"
     inkscape:window-height="713"
     id="namedview98"
     showgrid="false"
     inkscape:zoom="0.87249284"
     inkscape:cx="479.47341"
     inkscape:cy="106.35307"
     inkscape:window-x="0"
     inkscape:window-y="27"
     inkscape:window-maximized="1"
     inkscape:current-layer="layer2" />
  <g
     transform="translate(0.000000,224.000000) scale(0.100000,-0.100000)"
     fill="#000000"
     stroke="none"
     id="g94">
    <path
       d="M775 2215 c6 -2 43 -11 83 -19 207 -42 374 -203 427 -411 18 -70 19 -182 4 -257 -25 -122 -122 -268 -224 -338 l-44 -30 -48 145 -47 145 -143 0 -143 0 0 -171 0 -171 -27 6 c-71 17 -160 72 -229 140 -75 76 -123 157 -149 256 -19 70 -19 210 0 280 47 176 176 319 347 385 35 13 55 24 46 25 -35 0 -178 -59 -245 -102 -363 -236 -461 -733 -215 -1095 91 -134 260 -257 410 -299 l62 -17 0 -319 0 -318 670 0 670 0 0 243 0 243 153 64 c83 35 154 65 157 67 2 2 -12 20 -32 40 l-36 36 125 149 c69 82 124 150 122 152 -4 4 -902 -33 -904 -37 -1 -1 -55 -159 -120 -352 -64 -192 -120 -355 -124 -362 -4 -7 -43 98 -88 232 l-81 245 52 35 c66 43 163 144 209 216 82 129 119 261 119 424 0 233 -80 417 -248 574 -83 77 -212 149 -314 175 -52 13 -216 31 -195 21z m302 -1256 l61 -180 -22 -14 c-38 -25 -175 -65 -254 -75 -42 -5 -106 -6 -142 -2 l-65 7 -3 195 -2 195 107 1 c91 0 119 4 178 26 39 14 73 26 76 27 3 1 33 -80 66 -180z"
       id="path2"
       style="fill:#aea54f;fill-opacity:1" />
    <path
       d="M4135 1492 c-6 -4 -16 -19 -22 -34 -12 -26 -11 -28 11 -28 28 0 49 22 44 46 -3 20 -18 27 -33 16z"
       id="path4"
       style="fill:#aea54f;fill-opacity:1" />
    <path
       d="M1647 1266 c-31 -101 -57 -186 -57 -190 0 -7 328 2 368 10 22 4 22 6 22 184 l0 180 -138 0 -138 0 -57 -184z"
       id="path6"
       style="fill:#cc0000;fill-opacity:1" />
    <path
       d="M2020 1268 l0 -181 237 6 c130 4 238 9 241 11 2 2 13 40 24 83 11 43 40 116 64 164 24 47 44 88 44 92 0 4 -137 7 -305 7 l-305 0 0 -182z"
       id="path8"
       style="fill:#27ae60;fill-opacity:1" />
    <path
       d="M2945 1420 c-44 -17 -50 -37 -50 -157 0 -113 0 -115 28 -139 48 -41 147 -24 161 28 3 13 6 67 6 121 0 96 -1 99 -29 128 -30 30 -73 37 -116 19z m74 -64 c8 -9 11 -44 9 -96 -2 -66 -7 -85 -20 -94 -13 -8 -23 -8 -35 0 -26 16 -31 164 -8 188 20 20 39 20 54 2z"
       id="path10"
       style="fill:#aea54f;fill-opacity:1" />
    <path
       d="M3150 1260 l0 -160 85 0 85 0 0 30 c0 30 -1 30 -55 30 l-55 0 0 130 0 130 -30 0 -30 0 0 -160z"
       id="path12"
       style="fill:#aea54f;fill-opacity:1" />
    <path
       d="M3350 1396 c0 -14 5 -28 10 -31 6 -4 10 -60 10 -136 l0 -129 30 0 30 0 0 160 0 160 -40 0 c-36 0 -40 -3 -40 -24z"
       id="path14"
       style="fill:#aea54f;fill-opacity:1" />
    <path
       d="M3500 1260 l0 -160 30 0 c30 0 30 0 31 58 l1 57 20 -57 c16 -47 24 -58 41 -58 18 0 26 12 43 68 l22 67 1 -68 1 -68 28 3 27 3 3 158 3 157 -34 0 c-33 0 -33 0 -62 -90 -16 -50 -32 -87 -36 -83 -3 5 -19 45 -34 91 -25 78 -28 82 -56 82 l-29 0 0 -160z"
       id="path16"
       style="fill:#aea54f;fill-opacity:1" />
    <path
       d="M3810 1260 l0 -160 30 0 c29 0 30 2 30 45 l0 45 45 0 c35 0 52 6 70 25 22 21 25 33 25 90 0 57 -3 69 -25 90 -21 22 -33 25 -100 25 l-75 0 0 -160z m142 69 c5 -16 5 -37 -1 -52 -9 -22 -17 -27 -46 -27 l-35 0 0 56 0 55 37 -3 c29 -2 38 -8 45 -29z"
       id="path18"
       style="fill:#aea54f;fill-opacity:1" />
    <path
       d="M4060 1396 c0 -13 7 -26 15 -30 12 -4 15 -29 15 -136 l0 -130 30 0 30 0 0 160 0 160 -45 0 c-41 0 -45 -2 -45 -24z"
       id="path20"
       style="fill:#aea54f;fill-opacity:1" />
    <path
       d="M4285 1408 c-10 -32 -65 -279 -65 -293 0 -10 10 -15 29 -15 25 0 30 5 38 38 7 32 13 37 40 40 30 3 33 0 43 -37 9 -36 14 -41 40 -41 20 0 30 5 30 15 0 9 -16 81 -36 160 l-36 145 -40 0 c-22 0 -40 -5 -43 -12z m55 -139 c0 -10 -6 -19 -14 -19 -9 0 -12 8 -8 25 5 28 22 24 22 -6z"
       id="path22"
       style="fill:#aea54f;fill-opacity:1" />
    <path
       d="M4480 1259 l0 -162 76 5 c103 7 117 22 122 123 5 97 -4 141 -33 171 -21 21 -34 24 -95 24 l-70 0 0 -161z m128 89 c16 -16 16 -160 0 -176 -7 -7 -25 -12 -40 -12 l-28 0 0 100 0 100 28 0 c15 0 33 -5 40 -12z"
       id="path24"
       style="fill:#aea54f;fill-opacity:1" />
    <path
       d="M4785 1398 c-3 -13 -19 -80 -35 -150 -17 -70 -30 -132 -30 -137 0 -15 60 -14 64 2 3 6 7 25 11 40 5 25 10 28 38 25 27 -3 33 -8 40 -40 8 -35 12 -38 44 -38 28 0 33 3 29 18 -3 9 -17 64 -31 122 -49 198 -41 180 -85 180 -33 0 -41 -4 -45 -22z m58 -128 c3 -13 0 -20 -9 -20 -8 0 -14 9 -14 20 0 11 4 20 9 20 5 0 11 -9 14 -20z"
       id="path26"
       style="fill:#aea54f;fill-opacity:1" />
    <path
       d="M5112 1263 l3 -158 74 1 c68 0 76 3 97 28 22 25 24 37 24 127 0 98 -1 101 -29 130 -27 27 -35 29 -100 29 l-72 0 3 -157z m133 -3 l0 -95 -37 -3 -38 -3 0 101 0 101 38 -3 37 -3 0 -95z"
       id="path28"
       style="fill:#aea54f;fill-opacity:1" />
    <path
       d="M5380 1260 l0 -160 75 0 75 0 0 30 c0 29 -1 30 -50 30 l-50 0 0 39 c0 36 3 40 27 43 19 2 29 10 34 31 7 26 5 27 -27 27 -31 0 -34 3 -34 30 0 29 1 30 50 30 49 0 50 1 50 30 l0 30 -75 0 -75 0 0 -160z"
       id="path30"
       style="fill:#aea54f;fill-opacity:1" />
    <path
       d="M4249 943 c-6 -16 -16 -35 -24 -43 -7 -8 -27 -78 -45 -155 -17 -77 -33 -146 -35 -152 -3 -9 7 -13 29 -13 32 0 35 3 41 40 6 37 9 40 40 40 31 0 34 -3 40 -40 6 -38 9 -40 41 -40 19 0 34 2 34 6 0 17 -72 292 -80 306 -6 11 -6 19 0 23 6 3 10 17 10 31 0 35 -37 33 -51 -3z m20 -210 c1 -7 -6 -13 -14 -13 -17 0 -18 4 -8 39 6 23 7 23 14 5 4 -10 8 -25 8 -31z"
       id="path32"
       style="fill:#aea54f;fill-opacity:1" />
    <path
       d="M2900 740 l0 -160 30 0 c30 0 30 0 31 58 l1 57 20 -57 c16 -48 24 -58 43 -58 20 0 26 9 43 63 l20 62 1 -62 1 -63 30 0 30 0 0 160 0 160 -29 0 c-27 0 -31 -5 -59 -82 -16 -46 -31 -90 -34 -98 -3 -8 -19 29 -37 83 -31 93 -34 97 -62 97 l-29 0 0 -160z"
       id="path34"
       style="fill:#aea54f;fill-opacity:1" />
    <path
       d="M3230 758 c-18 -79 -35 -151 -38 -160 -3 -15 2 -18 31 -18 33 0 35 2 41 40 6 36 9 40 36 40 31 0 34 -3 44 -52 6 -24 11 -28 42 -28 29 0 34 3 30 18 -11 39 -76 292 -76 297 0 3 -17 5 -38 5 l-39 0 -33 -142z m82 -13 c4 -17 1 -25 -8 -25 -14 0 -19 31 -7 43 9 10 10 9 15 -18z"
       id="path36"
       style="fill:#aea54f;fill-opacity:1" />
    <path
       d="M3420 870 c0 -27 3 -30 30 -30 l30 0 0 -130 0 -130 30 0 30 0 0 130 0 130 35 0 c32 0 35 2 35 30 l0 30 -95 0 -95 0 0 -30z"
       id="path38"
       style="fill:#aea54f;fill-opacity:1" />
    <path
       d="M3640 740 l0 -160 80 0 c79 0 80 0 80 25 0 23 -3 25 -50 25 l-50 0 0 40 c0 36 3 40 25 40 15 0 25 6 25 14 0 8 3 21 6 30 5 13 -1 16 -25 16 -29 0 -31 3 -31 35 l0 35 50 0 c49 0 50 1 50 30 l0 30 -80 0 -80 0 0 -160z"
       id="path40"
       style="fill:#aea54f;fill-opacity:1" />
    <path
       d="M3850 741 l0 -161 30 0 30 0 1 63 1 62 20 -63 c18 -57 22 -63 45 -60 21 2 29 12 43 58 l18 55 1 -57 c1 -57 1 -58 31 -58 l30 0 0 160 0 160 -29 0 c-28 0 -31 -4 -62 -97 l-32 -98 -32 95 c-30 92 -33 95 -63 98 l-32 3 0 -160z"
       id="path42"
       style="fill:#aea54f;fill-opacity:1" />
    <path
       d="M4370 870 c0 -28 3 -30 35 -30 l35 0 0 -130 0 -130 30 0 30 0 0 130 0 130 30 0 c27 0 30 3 30 30 l0 30 -95 0 -95 0 0 -30z"
       id="path44"
       style="fill:#aea54f;fill-opacity:1" />
    <path
       d="M4590 870 c0 -16 5 -30 10 -30 6 0 10 -50 10 -130 l0 -130 30 0 30 0 0 160 0 160 -40 0 c-38 0 -40 -2 -40 -30z"
       id="path46"
       style="fill:#aea54f;fill-opacity:1" />
    <path
       d="M4763 876 c-28 -24 -28 -26 -28 -140 0 -103 2 -118 21 -136 44 -45 144 -34 144 16 0 25 -2 25 -40 19 -61 -10 -70 2 -70 100 0 94 10 111 60 102 26 -6 31 -3 36 19 8 32 -7 44 -58 44 -25 0 -46 -8 -65 -24z"
       id="path48"
       style="fill:#aea54f;fill-opacity:1" />
    <path
       d="M4951 753 c-18 -81 -36 -154 -38 -160 -4 -9 6 -13 30 -13 33 0 36 2 42 40 6 37 9 40 40 40 30 0 33 -3 39 -40 6 -38 8 -40 41 -40 19 0 35 3 35 8 0 4 -18 75 -39 157 l-38 150 -39 3 -39 3 -34 -148z m83 -5 c5 -21 3 -28 -9 -28 -17 0 -18 4 -9 38 8 27 9 26 18 -10z"
       id="path50"
       style="fill:#aea54f;fill-opacity:1" />
    <path
       d="M5310 740 l0 -160 69 0 c54 0 74 4 95 21 25 20 26 24 26 125 0 58 -5 114 -11 126 -15 28 -69 48 -129 48 l-50 0 0 -160z m124 78 c11 -15 16 -45 16 -90 0 -74 -14 -98 -56 -98 -24 0 -24 0 -24 105 0 105 0 105 24 105 14 0 32 -10 40 -22z"
       id="path52"
       style="fill:#aea54f;fill-opacity:1" />
    <path
       d="M5589 874 c-21 -23 -24 -36 -27 -122 -2 -53 1 -109 7 -125 24 -61 129 -74 171 -20 17 22 20 40 20 125 0 142 -16 168 -104 168 -33 0 -48 -6 -67 -26z m99 -46 c7 -7 12 -43 12 -93 0 -79 -9 -105 -36 -105 -7 0 -20 7 -28 16 -19 18 -23 143 -6 175 12 21 40 25 58 7z"
       id="path54"
       style="fill:#aea54f;fill-opacity:1" />
    <path
       d="M5848 884 c-15 -8 -31 -26 -34 -41 -12 -46 7 -76 71 -110 65 -34 86 -63 65 -88 -18 -21 -58 -19 -72 5 -13 21 -78 29 -78 10 0 -26 27 -61 58 -76 79 -37 162 7 162 87 0 48 -28 80 -94 108 -24 11 -46 24 -50 29 -11 18 23 35 59 29 31 -5 36 -3 41 20 4 16 2 28 -7 34 -22 14 -91 10 -121 -7z"
       id="path56"
       style="fill:#aea54f;fill-opacity:1" />
    <path
       d="M4613 373 c-13 -2 -32 -16 -43 -30 -17 -22 -20 -40 -20 -135 0 -102 1 -110 25 -133 19 -20 34 -25 72 -25 57 1 80 16 93 61 13 45 13 154 -1 202 -8 30 -18 42 -44 53 -35 14 -42 15 -82 7z m67 -82 c5 -11 10 -51 10 -89 0 -76 -12 -96 -52 -90 -22 3 -23 8 -26 87 -2 46 -1 90 2 98 8 20 54 16 66 -6z"
       id="path58"
       style="fill:#27ae60;fill-opacity:1" />
    <path
       d="M2890 340 c0 -20 5 -30 15 -30 13 0 15 -21 15 -130 l0 -130 30 0 30 0 0 160 0 160 -45 0 c-43 0 -45 -1 -45 -30z"
       id="path60"
       style="fill:#27ae60;fill-opacity:1" />
    <path
       d="M3050 210 l0 -160 30 0 30 0 0 93 0 92 53 -92 c46 -82 55 -93 80 -93 l27 0 0 160 0 160 -30 0 -29 0 -3 -87 -3 -88 -50 87 c-44 77 -53 88 -77 88 l-28 0 0 -160z"
       id="path62"
       style="fill:#27ae60;fill-opacity:1" />
    <path
       d="M3355 345 c-49 -48 -27 -107 52 -140 73 -31 96 -75 49 -96 -28 -13 -66 3 -66 27 0 11 -6 14 -16 10 -9 -3 -25 -6 -35 -6 -16 0 -19 -5 -14 -22 13 -45 51 -68 111 -68 70 0 104 29 104 87 0 51 -21 78 -83 109 -81 41 -85 70 -8 62 36 -3 42 -1 47 19 9 35 -3 43 -62 43 -45 0 -59 -4 -79 -25z"
       id="path64"
       style="fill:#27ae60;fill-opacity:1" />
    <path
       d="M3560 340 c0 -28 3 -30 35 -30 l35 0 0 -130 0 -130 25 0 25 0 0 130 0 130 35 0 c32 0 35 2 35 30 l0 30 -95 0 -95 0 0 -30z"
       id="path66"
       style="fill:#27ae60;fill-opacity:1" />
    <path
       d="M3770 340 c0 -20 5 -30 15 -30 13 0 15 -21 15 -130 l0 -130 30 0 30 0 0 160 0 160 -45 0 c-43 0 -45 -1 -45 -30z"
       id="path68"
       style="fill:#27ae60;fill-opacity:1" />
    <path
       d="M3890 340 c0 -28 3 -30 35 -30 l35 0 0 -130 0 -130 30 0 30 0 0 130 0 130 30 0 c27 0 30 3 30 30 l0 30 -95 0 -95 0 0 -30z"
       id="path70"
       style="fill:#27ae60;fill-opacity:1" />
    <path
       d="M4112 229 c3 -134 4 -142 27 -160 23 -19 91 -26 126 -13 34 13 45 58 45 189 l0 125 -30 0 -30 0 0 -114 c0 -63 -3 -121 -6 -130 -8 -21 -60 -21 -68 0 -3 9 -6 67 -6 130 l0 114 -31 0 -31 0 4 -141z"
       id="path72"
       style="fill:#27ae60;fill-opacity:1" />
    <path
       d="M4340 340 c0 -27 3 -30 30 -30 l30 0 0 -130 0 -130 30 0 30 0 0 130 0 130 30 0 c27 0 30 3 30 30 l0 30 -90 0 -90 0 0 -30z"
       id="path74"
       style="fill:#27ae60;fill-opacity:1" />
    <path
       d="M4826 349 c-20 -16 -26 -29 -26 -58 0 -44 13 -58 88 -95 41 -21 52 -31 52 -51 0 -46 -63 -54 -87 -11 -11 20 -63 9 -63 -14 0 -9 12 -29 26 -44 22 -22 36 -26 81 -26 47 0 59 4 84 29 56 56 31 125 -62 171 -34 17 -59 36 -56 43 2 7 23 12 47 13 35 0 45 5 52 23 12 34 2 41 -56 41 -39 0 -61 -6 -80 -21z"
       id="path76"
       style="fill:#27ae60;fill-opacity:1" />
    <path
       d="M5190 210 l0 -160 30 0 30 0 0 70 c0 67 1 70 24 70 22 0 36 16 36 41 0 5 -13 9 -30 9 -28 0 -30 3 -30 35 l0 35 50 0 c49 0 50 1 50 30 l0 30 -80 0 -80 0 0 -160z"
       id="path78"
       style="fill:#27ae60;fill-opacity:1" />
    <path
       d="M5400 210 l0 -160 80 0 c79 0 80 0 80 25 0 23 -3 25 -50 25 l-50 0 0 45 c0 41 2 45 25 45 14 0 25 4 25 9 0 5 3 16 6 25 5 13 -1 16 -25 16 -29 0 -31 3 -31 35 l0 35 50 0 c49 0 50 1 50 30 l0 30 -80 0 -80 0 0 -160z"
       id="path80"
       style="fill:#27ae60;fill-opacity:1" />
    <path
       d="M5610 210 l0 -160 65 0 c75 0 108 13 124 47 15 32 14 185 -1 218 -17 38 -58 55 -128 55 l-60 0 0 -160z m129 86 c8 -9 11 -45 9 -98 l-3 -83 -37 -3 -38 -3 0 100 0 101 29 0 c16 0 34 -6 40 -14z"
       id="path82"
       style="fill:#27ae60;fill-opacity:1" />
    <path
       d="M5880 210 l0 -160 75 0 c73 0 75 1 75 25 0 23 -3 25 -50 25 l-50 0 0 44 c0 41 2 45 28 48 19 2 28 9 30 26 3 19 -1 22 -27 22 -29 0 -31 3 -31 35 l0 35 50 0 c49 0 50 1 50 30 l0 30 -75 0 -75 0 0 -160z"
       id="path84"
       style="fill:#27ae60;fill-opacity:1" />
    <path
       d="M6090 210 l0 -160 30 0 c29 0 30 2 30 46 0 43 1 45 27 42 21 -2 29 -11 41 -45 12 -38 17 -43 43 -43 34 0 33 -4 14 51 -14 40 -14 47 1 81 25 55 15 135 -20 165 -23 19 -38 23 -97 23 l-69 0 0 -160z m130 81 c25 -48 1 -101 -46 -101 -23 0 -24 3 -24 60 0 60 0 60 30 60 19 0 33 -7 40 -19z"
       id="path86"
       style="fill:#27ae60;fill-opacity:1" />
    <path
       d="M6390 363 c0 -5 -16 -75 -35 -157 -19 -82 -35 -151 -35 -153 0 -2 14 -3 32 -1 28 3 33 8 41 41 9 35 12 38 40 35 27 -3 33 -8 40 -41 8 -34 12 -37 44 -37 28 0 33 3 29 18 -3 9 -17 64 -31 122 -49 198 -41 180 -85 180 -22 0 -40 -3 -40 -7z m54 -145 c5 -21 3 -28 -9 -28 -16 0 -19 17 -9 45 8 19 9 18 18 -17z"
       id="path88"
       style="fill:#27ae60;fill-opacity:1" />
    <path
       d="M6580 340 c0 -20 5 -30 15 -30 13 0 15 -21 15 -130 l0 -130 25 0 25 0 0 160 0 160 -40 0 c-38 0 -40 -2 -40 -30z"
       id="path90"
       style="fill:#27ae60;fill-opacity:1" />
    <path
       d="M6745 345 c-49 -48 -27 -107 52 -140 73 -31 96 -75 49 -96 -28 -13 -66 3 -66 27 0 11 -6 14 -16 10 -9 -3 -25 -6 -35 -6 -16 0 -19 -5 -14 -22 13 -45 51 -68 111 -68 70 0 104 29 104 87 0 51 -21 78 -83 109 -81 41 -85 70 -8 62 36 -3 42 -1 47 19 9 35 -3 43 -62 43 -45 0 -59 -4 -79 -25z"
       id="path92"
       style="fill:#27ae60;fill-opacity:1" />
  </g>
  <g
     inkscape:groupmode="layer"
     id="layer2"
     inkscape:label="Layer 1" />
</svg>
